<svg width="49" height="48" viewBox="0 0 49 48" fill="none" xmlns="http://www.w3.org/2000/svg">
<rect x="1.45898" y="0.5" width="47" height="47" stroke="white"/>
<path d="M19.9807 24.4685L28.3402 32.4335C28.4797 32.5664 28.665 32.6406 28.8577 32.6406C29.0504 32.6406 29.2357 32.5664 29.3752 32.4335L29.3842 32.4245C29.4521 32.36 29.5061 32.2824 29.543 32.1964C29.5799 32.1104 29.599 32.0178 29.599 31.9242C29.599 31.8306 29.5799 31.738 29.543 31.652C29.5061 31.566 29.4521 31.4884 29.3842 31.424L21.5122 23.924L29.3842 16.427C29.452 16.3625 29.5061 16.2849 29.543 16.1989C29.5799 16.1129 29.599 16.0203 29.599 15.9267C29.599 15.8331 29.5799 15.7405 29.543 15.6545C29.5061 15.5685 29.452 15.4909 29.3842 15.4265L29.3752 15.4175C29.2357 15.2845 29.0504 15.2103 28.8577 15.2103C28.665 15.2103 28.4797 15.2845 28.3402 15.4175L19.9807 23.3825C19.9072 23.4525 19.8486 23.5368 19.8087 23.6301C19.7687 23.7235 19.748 23.8239 19.748 23.9255C19.748 24.027 19.7687 24.1275 19.8087 24.2209C19.8486 24.3142 19.9072 24.3984 19.9807 24.4685Z" fill="white"/>
</svg>
