<svg width="34" height="34" viewBox="0 0 34 34" fill="none" xmlns="http://www.w3.org/2000/svg">
<path d="M34 17C34 7.61116 26.3888 0 17 0C7.61116 0 0 7.61116 0 17C0 26.3888 7.61116 34 17 34C26.3888 34 34 26.3888 34 17Z" fill="#E93247"/>
<path fill-rule="evenodd" clip-rule="evenodd" d="M25.3193 17.1932C25.3193 16.5905 25.2652 16.011 25.1648 15.4546H17.1593V18.7426H21.7339C21.5368 19.8051 20.9379 20.7053 20.0377 21.308V23.4407H22.7848C24.392 21.961 25.3193 19.7819 25.3193 17.1932Z" fill="white"/>
<path fill-rule="evenodd" clip-rule="evenodd" d="M17.159 25.5C19.454 25.5 21.3781 24.7389 22.7844 23.4407L20.0374 21.308C19.2763 21.818 18.3026 22.1193 17.159 22.1193C14.9451 22.1193 13.0712 20.6241 12.4028 18.615H9.56305V20.8173C10.9617 23.5952 13.8362 25.5 17.159 25.5Z" fill="white"/>
<path fill-rule="evenodd" clip-rule="evenodd" d="M12.4032 18.6149C12.2332 18.1049 12.1366 17.5601 12.1366 16.9999C12.1366 16.4397 12.2332 15.8949 12.4032 15.3849V13.1826H9.56339C8.98771 14.3301 8.6593 15.6283 8.6593 16.9999C8.6593 18.3715 8.98771 19.6697 9.56339 20.8172L12.4032 18.6149Z" fill="white"/>
<path fill-rule="evenodd" clip-rule="evenodd" d="M17.159 11.8807C18.4069 11.8807 19.5274 12.3096 20.4083 13.1518L22.8463 10.7139C21.3742 9.34227 19.4501 8.5 17.159 8.5C13.8362 8.5 10.9617 10.4048 9.56305 13.1827L12.4028 15.385C13.0712 13.3759 14.9451 11.8807 17.159 11.8807Z" fill="white"/>
</svg>
