<svg width="100" height="100" viewBox="0 0 100 100" fill="none" xmlns="http://www.w3.org/2000/svg">
<g clip-path="url(#clip0_1_687)">
<path d="M50 0C63.2608 0 75.9785 5.26784 85.3553 14.6447C94.7322 24.0215 100 36.7392 100 50C100 63.2608 94.7322 75.9785 85.3553 85.3553C75.9785 94.7322 63.2608 100 50 100C36.7392 100 24.0215 94.7322 14.6447 85.3553C5.26784 75.9785 0 63.2608 0 50C0 36.7392 5.26784 24.0215 14.6447 14.6447C24.0215 5.26784 36.7392 0 50 0ZM9.375 50C9.375 60.7744 13.6551 71.1076 21.2738 78.7262C28.8925 86.3449 39.2256 90.625 50 90.625C60.7744 90.625 71.1076 86.3449 78.7262 78.7262C86.3449 71.1076 90.625 60.7744 90.625 50C90.625 39.2256 86.3449 28.8925 78.7262 21.2738C71.1076 13.6551 60.7744 9.375 50 9.375C39.2256 9.375 28.8925 13.6551 21.2738 21.2738C13.6551 28.8925 9.375 39.2256 9.375 50ZM39.8688 32.6688L66.5187 48.6625C66.7491 48.8016 66.9396 48.9978 67.0718 49.2321C67.204 49.4664 67.2735 49.7309 67.2735 50C67.2735 50.2691 67.204 50.5336 67.0718 50.7679C66.9396 51.0022 66.7491 51.1984 66.5187 51.3375L39.8688 67.3312C39.6318 67.474 39.3611 67.5513 39.0845 67.5552C38.8079 67.5591 38.5352 67.4894 38.2943 67.3534C38.0533 67.2174 37.8529 67.0198 37.7133 66.781C37.5738 66.5421 37.5002 66.2704 37.5 65.9938V34.0125C37.4991 33.7353 37.5719 33.4629 37.711 33.2231C37.8501 32.9833 38.0504 32.7849 38.2915 32.6481C38.5326 32.5113 38.8058 32.4412 39.0829 32.4448C39.3601 32.4484 39.6313 32.5257 39.8688 32.6688Z" fill="#E93247"/>
</g>
<defs>
<clipPath id="clip0_1_687">
<rect width="100" height="100" fill="white"/>
</clipPath>
</defs>
</svg>
