<svg width="48" height="48" viewBox="0 0 48 48" fill="none" xmlns="http://www.w3.org/2000/svg">
<rect x="47.5" y="0.5" width="47" height="47" rx="23.5" transform="rotate(90 47.5 0.5)" stroke="white"/>
<path d="M23.1721 19.2327L15.2071 27.5922C15.0742 27.7316 15 27.9169 15 28.1097C15 28.3024 15.0742 28.4877 15.2071 28.6271L15.2161 28.6362C15.2806 28.704 15.3582 28.758 15.4442 28.795C15.5302 28.8319 15.6228 28.8509 15.7164 28.8509C15.81 28.8509 15.9026 28.8319 15.9886 28.795C16.0746 28.758 16.1522 28.704 16.2166 28.6362L23.7166 20.7642L31.2136 28.6362C31.2781 28.704 31.3557 28.758 31.4417 28.795C31.5277 28.8319 31.6203 28.8509 31.7139 28.8509C31.8075 28.8509 31.9001 28.8319 31.9861 28.795C32.0721 28.758 32.1497 28.704 32.2141 28.6362L32.2231 28.6271C32.3561 28.4877 32.4303 28.3024 32.4303 28.1097C32.4303 27.9169 32.3561 27.7316 32.2231 27.5922L24.2581 19.2327C24.1881 19.1591 24.1039 19.1006 24.0105 19.0606C23.9172 19.0206 23.8167 19 23.7151 19C23.6136 19 23.5131 19.0206 23.4198 19.0606C23.3264 19.1006 23.2422 19.1591 23.1721 19.2327Z" fill="white"/>
</svg>
