<svg width="24" height="24" viewBox="0 0 24 24" fill="none" xmlns="http://www.w3.org/2000/svg">
<path d="M6.23436 20.6251C5.94656 20.6245 5.66385 20.5491 5.41405 20.4062C4.85155 20.0874 4.50186 19.4687 4.50186 18.797V5.20321C4.50186 4.52961 4.85155 3.91274 5.41405 3.59399C5.6698 3.44701 5.96034 3.37142 6.25529 3.37513C6.55025 3.37884 6.83879 3.46171 7.09077 3.61508L18.7087 10.5695C18.9509 10.7213 19.1505 10.9321 19.2888 11.1822C19.4272 11.4322 19.4998 11.7134 19.4998 11.9991C19.4998 12.2849 19.4272 12.566 19.2888 12.8161C19.1505 13.0662 18.9509 13.277 18.7087 13.4288L7.08889 20.3851C6.83103 20.541 6.53568 20.6239 6.23436 20.6251Z" fill="#E93247"/>
</svg>
